<svg xmlns="http://www.w3.org/2000/svg" viewBox="0 0 24 24" fill="#666">
  <path d="M7.5 8.1 5.6 4.8a.7.7 0 1 1 1.2-.7L8.8 7.5A9.4 9.4 0 0 1 12 6.9c1.2 0 2.3.2 3.2.6l1.9-3.4a.7.7 0 1 1 1.2.7l-1.9 3.3A7 7 0 0 1 19.2 14H4.8a7 7 0 0 1 2.7-5.9ZM8.7 11.4a.8.8 0 1 0 0-1.6.8.8 0 0 0 0 1.6Zm6.6 0a.8.8 0 1 0 0-1.6.8.8 0 0 0 0 1.6Z"/>
  <path d="M4.8 15.2h1.4v4.1a1.4 1.4 0 1 1-2.8 0v-2.7c0-.8.6-1.4 1.4-1.4Zm13 0h1.4c.8 0 1.4.6 1.4 1.4v2.7a1.4 1.4 0 1 1-2.8 0v-4.1Z"/>
  <path d="M7.3 15.2h1.4v5.2a1.4 1.4 0 1 1-2.8 0v-3.8c0-.8.6-1.4 1.4-1.4Zm8 0h1.4c.8 0 1.4.6 1.4 1.4v3.8a1.4 1.4 0 1 1-2.8 0v-5.2Z"/>
  <path d="M9.8 15.2h4.4v6.2a1.4 1.4 0 1 1-2.8 0v-2.4a.4.4 0 0 0-.8 0v2.4a1.4 1.4 0 1 1-2.8 0v-6.2Z"/>
</svg>
